<?xml version="1.0" encoding="utf-8"?>
<!-- Generator: Adobe Illustrator 16.0.0, SVG Export Plug-In . SVG Version: 6.00 Build 0)  -->
<!DOCTYPE svg PUBLIC "-//W3C//DTD SVG 1.1//EN" "http://www.w3.org/Graphics/SVG/1.1/DTD/svg11.dtd">
<svg version="1.1" id="Layer_1" xmlns="http://www.w3.org/2000/svg" xmlns:xlink="http://www.w3.org/1999/xlink" x="0px" y="0px"
	 width="24px" height="24px" viewBox="0 0 24 24" enable-background="new 0 0 24 24" xml:space="preserve">
<g>
	<path d="M18,19.5c-0.384,0-0.768-0.146-1.061-0.439L12,14.121l-4.939,4.939c-0.586,0.586-1.535,0.586-2.121,0s-0.586-1.535,0-2.121
		L9.879,12L4.939,7.061c-0.586-0.585-0.586-1.536,0-2.121c0.586-0.586,1.535-0.586,2.121,0L12,9.879l4.939-4.939
		c0.586-0.586,1.535-0.586,2.121,0c0.586,0.585,0.586,1.536,0,2.121L14.121,12l4.939,4.939c0.586,0.586,0.586,1.535,0,2.121
		C18.768,19.354,18.384,19.5,18,19.5z"/>
</g>
</svg>
