<?xml version="1.0" encoding="utf-8"?>
<!-- Generator: Adobe Illustrator 16.0.0, SVG Export Plug-In . SVG Version: 6.00 Build 0)  -->
<!DOCTYPE svg PUBLIC "-//W3C//DTD SVG 1.1//EN" "http://www.w3.org/Graphics/SVG/1.1/DTD/svg11.dtd">
<svg version="1.1" id="Layer_1" xmlns="http://www.w3.org/2000/svg" xmlns:xlink="http://www.w3.org/1999/xlink" x="0px" y="0px"
	 width="24px" height="24px" viewBox="0 0 24 24" enable-background="new 0 0 24 24" xml:space="preserve">
<g>
	<path d="M12.351,23h-0.702c-4.697,0-7.055,0-8.626-1.132c-1.368-0.986-2.262-2.512-2.454-4.186
		c-0.22-1.925,0.932-3.981,3.227-8.079l0.352-0.628c2.386-4.26,3.583-6.398,5.383-7.211c1.57-0.708,3.369-0.708,4.939,0
		c1.8,0.813,2.997,2.95,5.383,7.209l0.352,0.629l-0.873,0.488l0.881-0.474c2.29,4.09,3.439,6.143,3.219,8.064
		c-0.191,1.675-1.086,3.201-2.453,4.187C19.405,23,17.048,23,12.351,23z M12,3.233c-0.562,0-1.123,0.118-1.646,0.354
		c-1.2,0.542-2.358,2.61-4.46,6.364L5.542,10.58c-2.02,3.606-3.132,5.592-2.985,6.875c0.128,1.116,0.724,2.133,1.636,2.79
		C5.24,21,7.516,21,11.649,21h0.702c4.132,0,6.41,0,7.457-0.755c0.912-0.657,1.509-1.674,1.637-2.791
		c0.146-1.28-0.963-3.262-2.978-6.86l-0.009-0.015l-0.351-0.627c-2.103-3.755-3.261-5.823-4.461-6.365
		C13.123,3.352,12.562,3.233,12,3.233z M12,18c-0.827,0-1.499-0.672-1.5-1.498c0-0.002,0-0.002,0-0.004
		C10.501,15.672,11.173,15,12,15c0.826,0,1.499,0.672,1.5,1.498c0,0.002,0,0.002,0,0.004C13.499,17.328,12.826,18,12,18z M12,14
		c-0.552,0-1-0.447-1-1V9c0-0.552,0.448-1,1-1c0.553,0,1,0.448,1,1v4C13,13.553,12.553,14,12,14z"/>
</g>
</svg>
