<svg width="16" height="16" viewBox="0 0 16 16"><path d="M15.941 11.649l-1.131-1.131a.2.2 0 00-.283 0l-.626.626V9.199a.2.2 0 00-.2-.2h-1.6a.2.2 0 00-.2.2v1.945l-.626-.626a.2.2 0 00-.283 0l-1.131 1.131a.2.2 0 000 .283l1.768 1.768 1.131 1.131a.2.2 0 00.283 0l1.131-1.131 1.768-1.768a.2.2 0 00-.001-.283zm0-7.582l-1.768-1.768-1.131-1.131a.2.2 0 00-.283 0l-1.131 1.131-1.767 1.768a.2.2 0 000 .283l1.131 1.131a.2.2 0 00.283 0l.626-.626V6.8c0 .11.09.2.2.2h1.6a.2.2 0 00.2-.2V4.855l.626.626a.2.2 0 00.283 0l1.131-1.131a.199.199 0 000-.283zM9 10.244c0-3.975-6.294-2.6-6.294-4.595 0-.682.572-1.237 2.058-1.237.957 0 1.995.278 3 .851l.771-1.901c-.753-.477-1.729-.78-2.742-.901V1.11H3.209v1.465C1.208 3.013.217 4.285.217 5.772c0 4.02 6.293 2.629 6.293 4.653 0 .666-.602 1.164-2.086 1.164-1.3 0-2.662-.465-3.573-1.131L0 12.343c.735.571 1.921 1.001 3.209 1.171v1.376h2.583v-1.423C7.939 13.068 9 11.751 9 10.244z"/></svg>