<svg width="16" height="16" viewBox="0 0 16 16"><path d="M9 10.244c0-3.976-6.293-2.6-6.293-4.595 0-.682.572-1.237 2.058-1.237.956 0 1.995.278 3 .851l.771-1.901c-.754-.477-1.73-.779-2.743-.9V1.109H3.209v1.465C1.208 3.012.217 4.284.217 5.772c0 4.021 6.293 2.629 6.293 4.653 0 .666-.602 1.165-2.086 1.165-1.3 0-2.661-.466-3.573-1.132L0 12.343c.735.571 1.921 1.002 3.209 1.171v1.377h2.584v-1.423C7.939 13.069 9 11.751 9 10.244zm.861-5.894l1.131 1.131a.2.2 0 00.283 0l.626-.626v4.054c0 .11.09.2.2.2h1.6a.2.2 0 00.2-.2V4.854l.626.626a.2.2 0 00.283 0l1.131-1.131a.2.2 0 000-.283l-1.768-1.768-1.131-1.131a.2.2 0 00-.283 0l-1.131 1.131-1.767 1.768a.202.202 0 000 .284z"/></svg>