<svg width="16" height="16" viewBox="0 0 16 16"><path d="M13 1.25a.75.75 0 01-1.5 0v-.5a.75.75 0 011.5 0v.5zm-8.5 0a.75.75 0 01-1.5 0v-.5a.75.75 0 011.5 0v.5zm3.883 8.059c-.499 0-.927.122-1.255.354.111-.821.618-1.271 1.447-1.271.4 0 .724.086.989.263l.099.066.055-.106.479-.952.044-.086-.082-.051c-.402-.255-.991-.401-1.615-.401-1.827 0-2.96 1.195-2.96 3.12 0 1.831.951 2.88 2.609 2.88 1.311 0 2.225-.809 2.225-1.968-.001-1.071-.856-1.848-2.035-1.848zm-.279 1.178c.522 0 .845.281.845.733 0 .44-.324.726-.829.726-.533 0-.877-.285-.877-.726-.001-.431.353-.733.861-.733z"/><path d="M13.801 1.02v.23a1.55 1.55 0 01-3.1 0V1H5.3v.25c0 .854-.694 1.55-1.55 1.55-.854 0-1.55-.696-1.55-1.55v-.23A2.393 2.393 0 000 3.4v10.2A2.4 2.4 0 002.399 16h11.2a2.4 2.4 0 002.4-2.4V3.4a2.39 2.39 0 00-2.198-2.38zM14 12.324c0 .994-.807 1.801-1.801 1.801H3.8c-.993 0-1.8-.807-1.8-1.801V6.125h12v6.199z"/></svg>