<svg width="16" height="16" viewBox="0 0 16 16"><path d="M13 1.25a.75.75 0 01-1.5 0v-.5a.75.75 0 011.5 0v.5zm-8.5 0a.75.75 0 01-1.5 0v-.5a.75.75 0 011.5 0v.5zm-.35 5.973h-.106v1.268h1.139v4.634h1.529V7.223h-.106zm7.7 4.616H9.671l1.113-1.051c.818-.758.985-1.298.985-1.874 0-1.087-.871-1.789-2.22-1.789-1.013 0-1.869.401-2.348 1.103l-.062.09.092.059.959.618.084.054.059-.08c.25-.345.627-.525 1.093-.525.367 0 .804.104.804.602 0 .212-.043.479-.561.972L7.475 12.09l-.033.031v1.006h4.514v-1.285h-.106zm-4.48-3.64c-.023.032-.054.058-.075.092l-.005-.003c.022-.033.055-.058.08-.089z"/><path d="M13.801 1.02v.23a1.55 1.55 0 01-3.1 0V1H5.3v.25c0 .854-.694 1.55-1.55 1.55-.854 0-1.55-.696-1.55-1.55v-.23A2.393 2.393 0 000 3.4v10.2A2.4 2.4 0 002.399 16h11.2a2.4 2.4 0 002.4-2.4V3.4a2.39 2.39 0 00-2.198-2.38zM14 12.324c0 .994-.807 1.801-1.801 1.801H3.8c-.993 0-1.8-.807-1.8-1.801V6.125h12v6.199z"/></svg>