<svg width="16" height="16" viewBox="0 0 16 16"><path d="M13 1.25a.75.75 0 01-1.5 0v-.5a.75.75 0 011.5 0v.5zm-8.5 0a.75.75 0 01-1.5 0v-.5a.75.75 0 011.5 0v.5zm4.753 5.875H6.65v1.271h1.163v4.729H9.35v-6z"/><path d="M13.8 1.02v.23c0 .854-.694 1.55-1.55 1.55s-1.55-.696-1.55-1.55V1H5.3v.25c0 .854-.695 1.55-1.55 1.55S2.2 2.104 2.2 1.25v-.23A2.392 2.392 0 000 3.4v10.2A2.4 2.4 0 002.399 16H13.6a2.398 2.398 0 002.399-2.4V3.4A2.392 2.392 0 0013.8 1.02zm.2 11.304c0 .994-.807 1.801-1.801 1.801H3.8c-.994 0-1.8-.807-1.8-1.801V6.125h12v6.199z"/></svg>