<svg width="16" height="16" viewBox="0 0 16 16"><path d="M13 1.25a.75.75 0 01-1.5 0v-.5a.75.75 0 011.5 0v.5zm-8.5 0a.75.75 0 11-1.5 0v-.5a.75.75 0 011.5 0v.5zm4.42 8.232l1.177-1.341.024-.028v-.988h-4.19v1.254h2.313L7.211 9.547l-.023.029v1.005h.701c.645 0 .972.204.972.604 0 .398-.363.637-.972.637-.574 0-1.162-.184-1.573-.494l-.092-.069-.054.102-.514 1.012-.037.074.068.049c.558.394 1.393.629 2.232.629 1.817 0 2.462-1.045 2.462-1.939.001-.873-.542-1.498-1.461-1.704zM6.266 11.41l-.01-.004.001-.001.009.005z"/><path d="M13.801 1.02v.23a1.55 1.55 0 01-3.1 0V1H5.3v.25c0 .854-.695 1.55-1.55 1.55S2.2 2.104 2.2 1.25v-.23A2.393 2.393 0 000 3.4v10.2A2.4 2.4 0 002.399 16h11.2a2.4 2.4 0 002.4-2.4V3.4a2.39 2.39 0 00-2.198-2.38zM14 12.324c0 .994-.807 1.801-1.801 1.801H3.8c-.994 0-1.8-.807-1.8-1.801V6.125h12v6.199z"/></svg>