<svg width="16" height="16" viewBox="0 0 16 16"><path d="M10.901 6.499c-.215.272-.74.465-.74.465L6.244 8.371V7.333l2.883-1.028c.328-.117.377-.281.111-.37-.266-.086-.746-.062-1.073.056l-1.921.676V5.591l.11-.038s.555-.196 1.336-.283c.78-.086 1.735.011 2.486.297.845.266.94.661.725.932zM6.618 4.733V2.079c0-.31-.057-.598-.351-.68-.223-.07-.364.137-.364.449v6.644l-1.79-.57V0c.762.142 1.871.475 2.467.677 1.517.52 2.031 1.169 2.031 2.631 0 1.422-.877 1.962-1.993 1.425zM.825 7.224C-.042 6.979-.187 6.47.208 6.177c.366-.271.988-.475.988-.475l2.569-.912v1.04l-1.849.662c-.326.117-.376.284-.111.371.265.086.746.062 1.074-.055l.887-.322v.931l-.176.03a5.829 5.829 0 01-2.765-.223zM11.052 15.981a4.49 4.49 0 01-1.998-.708c-.505-.331-.619-.466-.619-.736 0-.543.597-1.495 1.62-2.578.58-.616 1.387-1.337 1.475-1.318.17.039 1.529 1.363 2.038 1.987.804.986 1.173 1.794.986 2.153-.143.273-1.029.809-1.681 1.014a4.932 4.932 0 01-1.821.186zm-3.301-2.008c-.419-.645-.632-1.278-.734-2.193-.033-.302-.022-.477.078-1.098.121-.774.563-1.67 1.094-2.221.225-.235.246-.241.52-.149.334.113.692.361 1.245.86l.323.292-.177.216c-.817 1.007-1.683 2.43-2.008 3.312-.176.479-.249.96-.173 1.16.052.136.005.084-.168-.179zm7.37.109c.04-.202-.011-.573-.135-.949-.266-.811-1.155-2.321-1.973-3.349l-.258-.322.278-.256c.364-.334.616-.533.888-.703.216-.134.522-.252.654-.252.082 0 .368.296.599.621.368.524.626 1.119.756 1.746.086.409.094 1.284.013 1.693a5.294 5.294 0 01-.336 1.065c-.102.222-.352.65-.462.79-.055.071-.055.071-.024-.084zm-3.995-5.984c-.378-.19-.96-.397-1.281-.453a2.436 2.436 0 00-.427-.023c-.264.013-.253 0 .172-.202.334-.16.687-.277 1.05-.348.451-.095 1.296-.096 1.74-.003.479.102 1.042.312 1.359.506l.095.06-.217-.012c-.431-.022-1.058.153-1.731.48-.202.097-.38.176-.393.175a8.304 8.304 0 01-.367-.18z"/></svg>