<svg xmlns="http://www.w3.org/2000/svg" viewBox="0 0 16 16" fill="currentColor"><path d="M8 14c3.87 0 7-2.46 7-5.49 0-1.88-1.2-3.53-3.04-4.52q-1.1-.61-1.84-1.07C9.2 2.35 8.64 2 8 2s-1.36.45-2.31 1.03A29 29 0 0 1 4.04 4C2.2 4.98 1 6.63 1 8.51 1 11.54 4.13 14 8 14M7.18 3.88q.3-.66.3-1.37c0-.08.11-.1.13-.01.38 1.57-.53 2.35-1.2 2.61-.08.03-.12-.07-.06-.12a3 3 0 0 0 .83-1.12m1.2-.05a3 3 0 0 0-.45-1.3V2.5c-.04-.07.05-.15.1-.1 1.15 1.2.77 2.3.33 2.87-.05.05-.13 0-.11-.08q.21-.67.13-1.37m1.04-.32a3 3 0 0 0-.94-1.02v-.01c-.06-.05-.01-.16.07-.12 1.51.61 1.61 1.8 1.43 2.5l-.03.03a.07.07 0 0 1-.1-.06 3 3 0 0 0-.43-1.32m-2.97.32c-.36.3-.74.43-1.2.56q-.11 0-.1-.1a3.5 3.5 0 0 0 1.76-1.57s.09-.07.1.04c0 .18-.2.76-.56 1.07m2.89 6.36q-.13.52-.55.88a1.3 1.3 0 0 1-.75.35 1.3 1.3 0 0 1-.77-.35 1.7 1.7 0 0 1-.54-.88.13.13 0 0 1 .15-.15h2.31a.14.14 0 0 1 .15.15M6.15 8.95a1.1 1.1 0 0 1-1.39-.14A1.1 1.1 0 0 1 5.12 7a1.1 1.1 0 0 1 1.2.25 1.1 1.1 0 0 1-.17 1.69m4.96 0a1.1 1.1 0 0 1-1.4-.14 1.1 1.1 0 0 1 .37-1.8 1.1 1.1 0 0 1 1.2.25 1.1 1.1 0 0 1 .24 1.2 1 1 0 0 1-.41.5"/></svg>
