<svg width="16" height="16" viewBox="0 0 16 16"><path d="M13.8 10h-1.6a.2.2 0 00-.2.199V12h-1.8a.2.2 0 00-.2.199v1.6a.2.2 0 00.2.201h3.6a.2.2 0 00.2-.201v-3.6a.2.2 0 00-.2-.199zM2.2 6h1.6a.2.2 0 00.2-.2V4h1.8a.2.2 0 00.2-.2V2.2a.2.2 0 00-.2-.2H2.2a.2.2 0 00-.2.2v3.6c0 .11.09.2.2.2zM10 2.2v1.6c0 .11.09.2.2.2H12v1.8c0 .11.09.2.2.2h1.6a.2.2 0 00.2-.2V2.2a.2.2 0 00-.2-.2h-3.6a.2.2 0 00-.2.2zM6 13.8v-1.6a.2.2 0 00-.2-.2H4v-1.8a.2.2 0 00-.2-.2H2.2a.2.2 0 00-.2.2v3.6c0 .11.09.2.2.2h3.6a.2.2 0 00.2-.2z"/></svg>