<svg width="16" height="16" viewBox="0 0 16 16"><g fill="#010101"><circle cx="8" cy="8" r="2.832"/><path d="M8 1.655a6.345 6.345 0 10.003 12.69A6.345 6.345 0 008 1.656zm0 10.767A4.421 4.421 0 118 3.58a4.421 4.421 0 010 8.842z"/><path d="M2 8.8a.2.2 0 01-.2.2H.2a.2.2 0 01-.2-.2V7.2A.2.2 0 01.2 7h1.6a.2.2 0 01.2.2v1.6zm7 7a.2.2 0 01-.2.2H7.2a.2.2 0 01-.2-.2v-1.6c0-.11.09-.2.2-.2h1.6c.11 0 .2.09.2.2v1.6zm7-7a.2.2 0 01-.2.2h-1.6a.2.2 0 01-.2-.2V7.2c0-.11.09-.2.2-.2h1.6c.11 0 .2.09.2.2v1.6zm-7-7a.2.2 0 01-.2.2H7.2a.2.2 0 01-.2-.2V.2c0-.11.09-.2.2-.2h1.6c.11 0 .2.09.2.2v1.6z"/></g></svg>