<svg width="16" height="16" viewBox="0 0 16 16"><path d="M5 16v-4.799A.2.2 0 004.8 11H.2a.2.2 0 00-.2.201V16h5zm11 0v-4.799a.201.201 0 00-.201-.201h-4.6a.2.2 0 00-.199.201V16h5zm-5.5 0V6.959a.2.2 0 00-.2-.2H5.7a.2.2 0 00-.2.2V16h5zm.538-13.792l-2.1-.305L8 0l-.938 1.903-2.1.305 1.519 1.48-.358 2.09L8 4.791l1.878.987-.358-2.09 1.518-1.48zM16 7.062l-1.729-.251-.771-1.565-.773 1.565L11 7.062l1.25 1.217L11.955 10l1.545-.812 1.545.812-.295-1.721L16 7.062zM5 7.063l-1.729-.251L2.5 5.246l-.773 1.566L0 7.063 1.25 8.28.955 10 2.5 9.188 4.045 10 3.75 8.279 5 7.063z"/></svg>