<svg width="16" height="16" viewBox="0 0 16 16"><path d="M2 3.8a.2.2 0 01-.2.2H.2a.2.2 0 01-.2-.2V2.2A.2.2 0 01.2 2h1.6a.2.2 0 01.2.2v1.6zm0 5a.2.2 0 01-.2.2H.2a.2.2 0 01-.2-.2V7.2A.2.2 0 01.2 7h1.6a.2.2 0 01.2.2v1.6zm0 5a.2.2 0 01-.2.2H.2a.2.2 0 01-.2-.2v-1.6a.2.2 0 01.2-.2h1.6c.11 0 .2.09.2.2v1.6zM13.8 7H4.2a.2.2 0 00-.2.2v1.599A.2.2 0 004.2 9h9.6a.2.2 0 00.2-.2V7.2a.2.2 0 00-.2-.2zm2-5H4.2a.2.2 0 00-.2.2v1.6c0 .11.09.2.2.2h11.6a.2.2 0 00.2-.2V2.2a.2.2 0 00-.2-.2zm0 10H4.2a.2.2 0 00-.2.2v1.6c0 .11.09.2.2.2h11.6a.2.2 0 00.2-.2v-1.6a.2.2 0 00-.2-.2z"/></svg>