<svg width="16" height="16" viewBox="0 0 16 16"><path d="M2 2.2a.2.2 0 01.2-.2h9.6a.19.19 0 01.119.049L14 4.101V.2a.2.2 0 00-.2-.2H.2a.2.2 0 00-.2.2v15.6c0 .11.089.2.2.2h13.6a.2.2 0 00.2-.2v-3.901l-2.081 2.053A.195.195 0 0111.8 14H2.2a.2.2 0 01-.2-.2V2.2z"/><path d="M14.941 7.858L13.81 6.727l-2.829-2.829a.2.2 0 00-.283 0L9.567 5.03a.2.2 0 000 .283L11.254 7H4.2a.2.2 0 00-.2.2v1.6c0 .11.089.2.2.2h7.054l-1.687 1.687a.2.2 0 000 .283l1.131 1.132a.2.2 0 00.283 0l2.829-2.829 1.131-1.131a.2.2 0 000-.284z"/></svg>