<svg width="16" height="16" viewBox="0 0 16 16"><path d="M6.698 14.787v-.002l-.003-.006L5.5 12.253l10.266-9.039L16.001 0l-3.218.234-9.035 10.265L1.22 9.303l-.005-.001v-.001.001a.137.137 0 00-.152.031l-.201.201-.213.212-.202.202a.142.142 0 000 .199l1.916 1.914-2.322 2.323a.142.142 0 000 .2l.686.688.687.687a.141.141 0 00.201-.002l2.322-2.321 1.916 1.913a.142.142 0 00.201.002l.2-.202.213-.211.201-.201a.136.136 0 00.03-.15z"/><path d="M4.326 6.815l2.343-2.662-3.45-3.92L.001 0l.235 3.214zm9.313 5.247l1.916-1.914a.14.14 0 000-.199l-.202-.202-.212-.212-.201-.201a.137.137 0 00-.152-.031l-.006.001-2.527 1.196-.758-.861-1.982 1.745.988.87-1.195 2.526-.003.006v.002a.139.139 0 00.029.149l.201.201.214.211.199.202a.142.142 0 00.201-.002l1.916-1.913 2.322 2.321a.14.14 0 00.2.002l.687-.687.687-.688a.14.14 0 000-.2l-2.322-2.322z"/></svg>