<svg width="16" height="16" viewBox="0 0 16 16"><path d="M14.972 8.846a26.505 26.505 0 00-.174-1.643 17.549 17.549 0 00-.597-2.785c-.12-.395-.26-.784-.42-1.165a7.253 7.253 0 00-.531-1.075c-.435-.685-1.104-1.169-1.872-1.422a4.8 4.8 0 00-.998-.208c-.197-.021-.395-.021-.592-.03a24.264 24.264 0 00-3.711.135c-.915.104-1.831.266-2.706.556-.766.255-1.499.646-2.045 1.247-.13.143-.244.297-.348.457A4.008 4.008 0 00.13 4.684c-.17.805-.151 1.641-.063 2.453-.064-.568-.097-.868.001.015.335 3.01.123 1.095.003.024.185 1.656.466 3.334 1.051 4.9.201.539.45 1.038.759 1.521.157.245.32.482.521.697.373.397.833.711 1.341.911.759.302 1.594.348 2.396.243 1.079-.138 2.151-.395 3.193-.7a20.742 20.742 0 002.388-.854 8.364 8.364 0 001.188-.637c.366-.237.721-.486 1.008-.821.087-.102.161-.212.232-.323.014-.016.031-.027.045-.043.43-.502.662-1.127.755-1.772.071-.484.059-.968.024-1.452z"/><path fill="#FFF" d="M8.838 11.79L8.502 16l-2.342-.187L7.182 3l3.624.289c3.551.283 5.447.987 5.167 4.501-.293 3.68-3.036 4.328-4.847 4.182l-2.288-.182zm.531-6.644l-.355 4.449 1.977.156c1.702.135 2.464-.393 2.602-2.133.116-1.465-.342-2.164-2.302-2.321l-1.922-.151z"/></svg>