<svg width="16" height="16" viewBox="0 0 16 16"><path d="M15.799 0h-2.6c-.11 0-.2.09-.201.201l.001 4.8L8.199 5a.2.2 0 00-.2.2l-.001 2.6c0 .111.09.2.2.2h5.001l2.6.001a.201.201 0 00.201-.2l-.001-2.6V.2a.2.2 0 00-.2-.2z"/><path d="M12.997 10.016a1.483 1.483 0 00-1.397.662c-.925 1.292-2.439 1.965-4.053 1.801a4.504 4.504 0 01-4.023-4.93 4.503 4.503 0 014.931-4.023 4.449 4.449 0 013.734 2.892h3.139C14.647 3.289 12 .87 8.758.542 4.641.123.955 3.131.538 7.246c-.417 4.115 2.591 7.801 6.706 8.218 2.653.269 5.274-.932 6.855-3.151a1.46 1.46 0 00.238-.653 1.5 1.5 0 00-1.34-1.644z"/></svg>