<svg width="16" height="16" viewBox="0 0 16 16"><path d="M16 14.801a.2.2 0 01-.199.199h-7.6A.2.2 0 018 14.801v-1.6c0-.111.09-.201.201-.201h7.6a.2.2 0 01.199.201v1.6zM5.978 9.977l-.955-.955a.074.074 0 00-.105 0L3 10.939 1.082 9.022a.075.075 0 00-.106 0l-.955.955a.079.079 0 000 .107L1.938 12 .021 13.918a.076.076 0 000 .105l.955.953a.072.072 0 00.106 0L3 13.063l1.918 1.914a.07.07 0 00.105 0l.955-.953a.074.074 0 000-.105L4.061 12l1.917-1.916a.077.077 0 000-.107zM16 10.801a.2.2 0 01-.199.199h-7.6A.2.2 0 018 10.801v-1.6a.2.2 0 01.2-.2h7.6a.2.2 0 01.199.2v1.6zM5.978 1.977l-.955-.955a.074.074 0 00-.105 0L3 2.939 1.083 1.022a.075.075 0 00-.106 0l-.956.955a.077.077 0 000 .106L1.938 4 .021 5.918a.076.076 0 000 .105l.955.953a.072.072 0 00.106 0L3 5.063l1.917 1.914a.07.07 0 00.105 0l.955-.953a.074.074 0 000-.105L4.062 4l1.917-1.917a.076.076 0 00-.001-.106zM16 6.8a.2.2 0 01-.199.2h-7.6A.2.2 0 018 6.8V5.2c0-.11.09-.2.201-.2h7.6a.2.2 0 01.199.201V6.8zm0-4a.2.2 0 01-.199.2h-7.6A.2.2 0 018 2.8V1.2c0-.11.09-.2.201-.2h7.6a.2.2 0 01.199.201V2.8z"/></svg>