<svg width="16" height="16" viewBox="0 0 16 16"><path d="M13.956 8.994c.109-.656.11-1.325.001-1.981l1.741-1.242a.247.247 0 00.088-.335l-.836-1.429-.052-.088-.835-1.429a.244.244 0 00-.334-.088l-1.932.905a6.026 6.026 0 00-1.673-.959L9.934.245A.246.246 0 009.688 0H6.276a.245.245 0 00-.245.245l-.193 2.117a6.027 6.027 0 00-1.635.945l-1.931-.905a.244.244 0 00-.334.086l-.001.002-.835 1.428-.052.089-.836 1.429a.246.246 0 00.088.335l1.741 1.242a6.041 6.041 0 00.002 1.981L.302 10.167a.246.246 0 00-.088.336l.872 1.49.052.088.871 1.491a.247.247 0 00.335.088l1.884-.946c.482.386 1.02.696 1.596.919l.135 2.122c0 .136.11.245.246.245H9.76a.244.244 0 00.245-.243v-.002l.136-2.106a6.067 6.067 0 001.633-.935l1.884.946a.247.247 0 00.335-.088l.872-1.491.051-.088.872-1.49a.248.248 0 00-.088-.336l-1.744-1.173zM8 11a3 3 0 110-6 3 3 0 010 6z"/></svg>