<svg width="16" height="16" viewBox="0 0 16 16"><path fill-rule="evenodd" clip-rule="evenodd" d="M4.671 7.318c-.178.404-.317.716-.453 1.03-.186.43-.519.64-.98.643-.73.006-1.46.009-2.19-.001C.444 8.983.009 8.567 0 8.013c-.009-.564.438-.994 1.054-1.004.469-.008.938-.01 1.407.002.184.005.278-.06.361-.221.373-.721.764-1.434 1.142-2.152.212-.403.52-.653.991-.629.45.023.758.305.918.809l1.553 4.876c.031.098.067.193.131.375.066-.171.108-.268.142-.368.774-2.297 1.546-4.595 2.323-6.891.226-.668.781-.963 1.354-.731.337.136.508.41.619.741.435 1.292.882 2.58 1.308 3.874.077.235.173.336.433.32.404-.026.812-.014 1.218-.005.604.012 1.039.426 1.046.981.007.564-.438.994-1.057 1.001a99.83 99.83 0 01-2.189 0c-.506-.005-.842-.254-1-.741-.212-.653-.412-1.31-.618-1.965-.033-.106-.069-.211-.134-.407-.069.181-.11.278-.144.378-.786 2.326-1.569 4.653-2.358 6.978-.213.628-.762.911-1.321.69-.336-.132-.515-.396-.622-.734-.577-1.825-1.161-3.647-1.744-5.471-.033-.105-.073-.209-.142-.401z"/></svg>