<svg width="16" height="16" viewBox="0 0 16 16"><path fill-rule="evenodd" clip-rule="evenodd" d="M8 0a8 8 0 100 16A8 8 0 008 0zm4.34 8.618c-.456.005-.912.005-1.368 0-.317-.002-.526-.158-.625-.462-.133-.408-.259-.818-.387-1.228l-.083-.254c-.044.113-.069.174-.091.235-.491 1.454-.98 2.909-1.473 4.361-.134.394-.477.569-.826.433-.21-.084-.322-.25-.388-.459-.361-1.142-.726-2.28-1.09-3.42-.022-.066-.047-.131-.09-.251-.11.253-.198.448-.283.644a.62.62 0 01-.612.401c-.456.003-.913.006-1.368 0-.379-.005-.65-.264-.656-.611-.006-.352.273-.621.659-.627.293-.005.587-.007.88.001.115.003.173-.038.226-.138.232-.452.477-.896.713-1.346.132-.251.324-.407.619-.392.28.015.474.191.573.506l.971 3.048c.02.061.042.119.082.234.041-.107.067-.168.088-.231.484-1.435.966-2.871 1.452-4.306.14-.417.488-.602.846-.457.21.085.317.256.387.462.272.808.552 1.613.817 2.421.049.147.108.21.271.2.253-.015.509-.008.763-.002.376.008.648.266.653.613.004.352-.273.621-.66.625z"/></svg>