<svg width="16" height="16" viewBox="0 0 16 16"><path d="M4.384 6.274h.123c.124-.003.244-.023.361-.047a3.53 3.53 0 01-.424-1.789 3.54 3.54 0 01.902-2.23 2.107 2.107 0 00-.96-.207h-.002a2.138 2.138 0 000 4.273zm7.173-1.81a3.542 3.542 0 01-.422 1.763c.111.022.225.042.342.047h.123a2.138 2.138 0 00-.121-4.273h-.002c-.295.01-.572.083-.825.201a3.55 3.55 0 01.905 2.262zm4.441 5.278a.888.888 0 00-.299-.631l-.004-.001c-.118-.106-.767-.671-1.479-.957a6.13 6.13 0 00-4.524-.315 8.305 8.305 0 011.917.631c.706.288 1.34.744 1.737 1.064h.017l.283.251c.422.373.676.908.697 1.469l.002.042v.034c.659-.297 1.24-.792 1.351-.892l.003-.003.018-.015a.888.888 0 00.282-.616V9.78L16 9.774v-.007l-.002-.025zM1.655 11.32l.001-.048v-.018a2.04 2.04 0 01.646-1.423l.03-.03.049-.04c.226-.198 1.059-.903 2.011-1.291a8.307 8.307 0 011.915-.632 6.11 6.11 0 00-4.523.316c-.712.285-1.361.85-1.48.956l-.003.001-.017.016a.881.881 0 00-.283.615L0 9.767v.037c.008.234.11.456.283.616l.017.016.003.003c.112.1.692.596 1.352.892v-.011z" opacity=".9"/><path d="M5.444 4.474a2.564 2.564 0 012.473-2.472l.001-.001a2.566 2.566 0 11-.002 5.128 2.564 2.564 0 01-2.472-2.655zm7.539 6.06a.008.008 0 01-.004-.002c-.143-.128-.92-.806-1.775-1.147A7.357 7.357 0 008 8.656a7.327 7.327 0 00-3.204.729c-.855.342-1.634 1.02-1.776 1.147l-.003.002-.021.019a1.05 1.05 0 00-.339.738l-.002.029v.046c.01.281.133.547.34.739l.02.018.004.003c.143.128.92.806 1.776 1.146A7.36 7.36 0 008 14a7.356 7.356 0 003.204-.728c.855-.341 1.633-1.019 1.775-1.146l.003-.003.021-.018c.207-.192.327-.458.339-.739v-.029l.002-.008v-.009l-.002-.029a1.06 1.06 0 00-.359-.757z"/></svg>