<svg width="16" height="16" viewBox="0 0 16 16"><path d="M11.5 7a4.5 4.5 0 100 9 4.5 4.5 0 000-9zm3 4.8a.2.2 0 01-.2.199H12V14.3a.2.2 0 01-.2.2h-.6a.2.2 0 01-.2-.2v-2.301H8.7a.2.2 0 01-.2-.199v-.6a.2.2 0 01.2-.201H11V8.7c0-.11.09-.2.2-.2h.6c.11 0 .2.09.2.2v2.299h2.3c.11 0 .2.09.2.201v.6z"/><path d="M11.232 6.014c.089-.005.177-.014.268-.014.315 0 .623.033.924.083a2.138 2.138 0 00-.945-4.082h-.002c-.295.01-.572.083-.825.201.536.604.88 1.385.905 2.262a3.506 3.506 0 01-.325 1.55zm-6.848.26h.123c.124-.003.244-.023.361-.047a3.53 3.53 0 01-.424-1.789 3.54 3.54 0 01.902-2.23 2.107 2.107 0 00-.96-.207h-.002a2.138 2.138 0 000 4.273zm1.923 1.564a6.11 6.11 0 00-4.523.316c-.712.285-1.361.85-1.48.956l-.003.001-.017.016a.881.881 0 00-.283.615L0 9.767v.037c.008.234.11.456.283.616l.017.016.003.003c.112.1.692.596 1.352.892v-.01l.001-.048v-.018a2.04 2.04 0 01.646-1.423l.03-.03.049-.04c.226-.199 1.059-.904 2.011-1.292a8.307 8.307 0 011.915-.632z" opacity=".9"/><path d="M7.917 7.129h.148c.044-.001.086-.013.13-.017a5.481 5.481 0 011.737-.882 2.548 2.548 0 00.625-1.738 2.567 2.567 0 00-2.638-2.491l-.002.001a2.565 2.565 0 000 5.127zM6 11.5c0-.992.267-1.92.726-2.724a7.338 7.338 0 00-1.93.609c-.855.342-1.634 1.02-1.776 1.147l-.003.002-.021.019a1.05 1.05 0 00-.339.738l-.002.029v.046c.01.281.133.547.34.739l.02.018.004.003c.143.128.92.806 1.776 1.146a7.206 7.206 0 001.736.574A5.465 5.465 0 016 11.5z"/></svg>