<svg width="16" height="16" viewBox="0 0 16 16"><path d="M11.5 7a4.5 4.5 0 100 9 4.5 4.5 0 000-9zm.002 1.123a3.375 3.375 0 012.746 5.334L9.546 8.75a3.363 3.363 0 011.956-.627zm-3.377 3.375c0-.728.232-1.398.625-1.952l4.707 4.703a3.375 3.375 0 01-5.332-2.751z"/><path d="M6 11.5a5.497 5.497 0 014.727-5.439l-.174-.174.334-.333.455.455c.053-.003.104-.009.158-.009 1.092 0 2.106.322 2.962.871L16 5.333 14.667 4A1.887 1.887 0 0112 1.333L10.667 0 8 2.667l.667.667-.334.333L7.667 3 0 10.667 1.333 12A1.887 1.887 0 014 14.667L5.333 16l1.538-1.538A5.465 5.465 0 016 11.5zm3.11-7.723l1.333 1.333-.334.333L8.776 4.11l.334-.333z"/></svg>