<svg width="16" height="16" viewBox="0 0 16 16"><path d="M11.5 7a4.5 4.5 0 100 9 4.5 4.5 0 000-9zm3 4.8a.2.2 0 01-.2.199H12V14.3a.2.2 0 01-.2.2h-.6a.2.2 0 01-.2-.2v-2.301H8.7a.2.2 0 01-.2-.199v-.6a.2.2 0 01.2-.201H11V8.7c0-.11.09-.2.2-.2h.6c.11 0 .2.09.2.2v2.299h2.3c.11 0 .2.09.2.201v.6z"/><path d="M6 11.5a5.497 5.497 0 014.727-5.439l-.174-.174.334-.333.455.455c.053-.003.104-.009.158-.009 1.092 0 2.106.322 2.962.871L16 5.333 14.667 4A1.887 1.887 0 0112 1.333L10.667 0 8 2.667l.667.667-.334.333L7.667 3 0 10.667 1.333 12A1.887 1.887 0 014 14.667L5.333 16l1.538-1.538A5.465 5.465 0 016 11.5zm3.11-7.723l1.333 1.333-.334.333L8.776 4.11l.334-.333z"/></svg>