<svg width="16" height="16" viewBox="0 0 16 16"><path d="M7.889 6.838A3.42 3.42 0 107.891.001L7.89.003a3.418 3.418 0 00-3.297 3.296 3.417 3.417 0 003.296 3.539zm6.756 4.541l-.005-.003c-.19-.171-1.228-1.074-2.367-1.529A9.805 9.805 0 008 8.875a9.76 9.76 0 00-4.271.972c-1.14.455-2.179 1.358-2.368 1.529l-.005.003-.027.024a1.408 1.408 0 00-.452.984l-.002.039v.062c.014.375.177.729.453.985l.026.023.006.004c.19.171 1.228 1.074 2.368 1.528 1.33.647 2.8.972 4.272.972s2.941-.325 4.272-.971c1.14-.454 2.177-1.357 2.367-1.528l.004-.004.028-.023c.275-.257.437-.61.452-.985v-.039l.002-.011v-.012l-.002-.039a1.417 1.417 0 00-.478-1.009z"/></svg>