<svg width="16" height="16" viewBox="0 0 16 16"><path d="M8 0a8 8 0 100 16A8 8 0 008 0zm-.083 2.001h.002a2.565 2.565 0 11-.002 5.128 2.566 2.566 0 010-5.128zm5.428 9.328l-.002.008v.03a1.068 1.068 0 01-.339.738l-.021.017-.004.004c-.143.128-.92.805-1.774 1.146A7.346 7.346 0 018 14a7.326 7.326 0 01-3.204-.729c-.855-.341-1.634-1.018-1.776-1.146l-.004-.004-.02-.017a1.056 1.056 0 01-.34-.738v-.046l.002-.03c.01-.281.131-.546.339-.738l.02-.017.004-.003c.141-.128.92-.806 1.776-1.146A7.293 7.293 0 018 8.656c1.105 0 2.207.244 3.205.729.854.341 1.632 1.019 1.774 1.146l.005.003c.217.192.348.466.358.755l.002.03v.01z"/></svg>