<svg width="16" height="16" viewBox="0 0 16 16"><path d="M13.941 11.796h-1.336s.324-.969.312-1.196h-1.332s-.163.668-.364 1.196h-6.44a11.684 11.684 0 01-.364-1.196H3.083c-.013.229.31 1.196.31 1.196H2.06c-.216-.215-.701-1.196-.701-1.196H0C1.104 13.734 4.268 16 8 16s6.896-2.266 8-5.4h-1.359s-.485.981-.7 1.196zm-10.83 1.19h.781c0-.002.431.818.539.906 0 .001-.551-.251-1.32-.906zM8 14.82c-1.604 0-2.64-1.846-2.64-1.846h5.281c0 .001-1.037 1.846-2.641 1.846zm3.572-.929c.104-.088.537-.906.537-.906h.781c-.768.654-1.318.906-1.318.906zM2.059 4.206h1.334s-.324.968-.311 1.194h1.333s.162-.667.364-1.194h6.44c.202.527.364 1.194.364 1.194h1.333c.014-.227-.311-1.194-.311-1.194h1.334c.215.215.702 1.194.702 1.194H16C14.896 2.264 11.732 0 8 0S1.104 2.264 0 5.4h1.359s.485-.979.7-1.194zm10.83-1.192h-.781s-.432-.816-.537-.905c-.001 0 .551.251 1.318.905zM8 1.179c1.604 0 2.641 1.846 2.641 1.846H5.36S6.397 1.179 8 1.179zm-3.569.93c-.108.089-.539.905-.539.905H3.11c.769-.654 1.321-.905 1.321-.905zm9.868 5.914l-.526-1.554-.022-.069H12.71l-.562 1.608-.544-1.608H9.666l-.562 1.623L8.553 6.4H7.514L6.95 8.009 6.407 6.4H4.469l-.564 1.624-.55-1.624H2.317l-.564 1.609L1.208 6.4H0l1.139 3.2h1.159l.515-1.433.494 1.433h1.161l.933-2.625.934 2.625h1.16l.514-1.432.495 1.432h1.16l.935-2.627.935 2.627h1.157l.516-1.433.495 1.433h1.157L16 6.4h-1.137z"/></svg>