<?xml version="1.0" encoding="utf-8"?>
<!-- Generator: Adobe Illustrator 16.0.0, SVG Export Plug-In . SVG Version: 6.00 Build 0)  -->
<!DOCTYPE svg PUBLIC "-//W3C//DTD SVG 1.1//EN" "http://www.w3.org/Graphics/SVG/1.1/DTD/svg11.dtd">
<svg version="1.1" id="Layer_1" xmlns="http://www.w3.org/2000/svg" xmlns:xlink="http://www.w3.org/1999/xlink" x="0px" y="0px"
	 width="24px" height="24px" viewBox="0 0 24 24" enable-background="new 0 0 24 24" xml:space="preserve">
<g opacity="0.4" enable-background="new    ">
	<path d="M12,22c-0.552,0-1-0.447-1-1v-6c0-0.553,0.448-1,1-1c0.553,0,1,0.447,1,1v6C13,21.553,12.553,22,12,22z"/>
</g>
<g>
	<path d="M12,16c-0.552,0-1-0.447-1-1V5.414l-5.293,5.293c-0.391,0.391-1.023,0.391-1.414,0s-0.391-1.023,0-1.414l7-7
		c0.096-0.096,0.208-0.169,0.326-0.218C11.735,2.027,11.863,2,11.997,2l0,0c0.002,0,0.004,0,0.006,0l0,0
		c0.134,0,0.262,0.027,0.378,0.075c0.119,0.049,0.229,0.122,0.326,0.218l7,7c0.391,0.391,0.391,1.023,0,1.414s-1.023,0.391-1.414,0
		L13,5.414V15C13,15.553,12.553,16,12,16z"/>
</g>
</svg>
