<svg width="16" height="16" viewBox="0 0 16 16"><path d="M2.375 4.184h.292c1.029 0 1.769.356 2.22 1.071.143.378.214.911.214 1.596v.701H2.94V6.325c0-.571-.065-.856-.195-.856a.154.154 0 00-.078-.02h-.175c-.208 0-.312.194-.312.584v3.993c0 .336.065.523.195.563.071.014.13.021.175.021h.058c.221 0 .331-.221.331-.662V8.76H5.1v.313c0 1.031-.123 1.674-.37 1.926-.503.586-1.191.877-2.064.877h-.213c-.935 0-1.623-.271-2.063-.816C.13 10.822 0 9.973 0 8.506v-.778C0 6.287.059 5.5.175 5.372c.217-.457.613-.795 1.188-1.013a3.139 3.139 0 011.012-.175zm5.647-.059h.156c1.097 0 1.843.422 2.239 1.266.104.198.155.847.155 1.947v1.325c0 1.27-.084 1.988-.254 2.16-.45.701-1.139 1.053-2.063 1.053h-.35c-.863 0-1.532-.313-2.006-.936-.208-.27-.312-.834-.312-1.693V6.909c0-.905.078-1.477.234-1.713.435-.715 1.169-1.071 2.201-1.071zM7.75 9.83c0 .506.058.76.175.76l.117.02h.078c.182 0 .273-.195.273-.584.012-.087.018-.288.018-.606V6.383c0-.61-.039-.915-.117-.915 0-.039-.071-.065-.214-.078-.22 0-.331.201-.331.604L7.75 9.83zm3.246-5.524h2.551c.014 0 .02.006.02.019.014 0 .021-.006.021-.019.847.052 1.333.129 1.46.233.303.094.549.289.74.584.142.19.212.762.212 1.712v2.668c0 .977-.098 1.535-.292 1.676-.229.35-.827.523-1.791.523h-2.921V4.306zm2.181 1.263v4.849h.117c.337 0 .506-.148.506-.445.026-.184.039-.475.039-.877V6.739c0-.688-.046-1.032-.137-1.032 0-.064-.175-.11-.525-.138z"/></svg>