 <svg width="16" height="16" viewBox="0 0 16 16"><path d="M10.654 6.351c-.21.266-.724.455-.724.455L6.103 8.181V7.167L8.92 6.163c.32-.115.368-.276.108-.362-.259-.085-.729-.061-1.048.054l-1.877.66V5.464l.107-.037s.542-.191 1.305-.277c.762-.084 1.695.011 2.43.291.826.26.919.645.709.91zM6.467 4.626V2.032c0-.303-.056-.584-.343-.665-.218-.069-.354.134-.354.438v6.493l-1.75-.556V0c.744.139 1.829.465 2.411.662 1.483.508 1.985 1.143 1.985 2.571 0 1.391-.857 1.917-1.949 1.393zM.807 7.06c-.848-.238-.989-.736-.604-1.022.357-.265.965-.464.965-.464l2.51-.892v1.017l-1.805.646c-.319.114-.368.277-.109.362.26.084.729.061 1.049-.054l.867-.315v.909l-.172.03A5.69 5.69 0 01.807 7.06zM11.327 15.982a4.246 4.246 0 01-1.888-.669c-.477-.313-.584-.439-.584-.695 0-.513.564-1.412 1.53-2.435.548-.582 1.311-1.263 1.394-1.244.16.036 1.443 1.286 1.924 1.876.76.932 1.108 1.694.932 2.033-.135.259-.972.764-1.587.958a4.657 4.657 0 01-1.721.176zm-3.118-1.897c-.396-.608-.596-1.207-.693-2.071-.031-.285-.021-.45.073-1.036.116-.732.533-1.578 1.034-2.099.213-.222.232-.227.492-.14.315.107.654.341 1.175.813l.306.275-.168.204c-.772.95-1.589 2.294-1.896 3.127-.167.453-.234.907-.163 1.096.048.129.004.08-.16-.169zm6.961.103c.038-.19-.01-.541-.127-.896-.251-.766-1.092-2.192-1.863-3.162l-.243-.305.263-.241c.344-.315.582-.504.838-.664.204-.127.494-.239.618-.239.077 0 .348.281.565.586.348.495.591 1.057.714 1.648.081.387.089 1.213.012 1.6-.07.346-.176.683-.317 1.006-.096.21-.332.614-.436.746-.053.068-.053.068-.024-.079zm-3.774-5.651c-.356-.18-.906-.375-1.21-.427a2.254 2.254 0 00-.402-.022c-.249.012-.239 0 .162-.19.315-.151.648-.262.991-.329.426-.09 1.224-.09 1.644-.003.452.096.984.294 1.284.478l.089.056-.204-.012c-.407-.021-.999.144-1.636.454-.19.092-.358.167-.37.165a8.577 8.577 0 01-.348-.17z"/></svg>
