<svg width="16" height="16" viewBox="0 0 16 16"><path d="M12.979 6.699l.735.736c.031.03.082.03.113 0l1.414-1.414.735-.735a.08.08 0 000-.113l-.735-.735-1.414-1.414a.08.08 0 00-.113 0l-.735.735a.08.08 0 000 .113l.614.614h-2.97v.003L8 7.112 5.376 4.489v-.003h-2.97l.615-.614a.08.08 0 000-.113l-.734-.736a.08.08 0 00-.113 0L.759 4.438l-.736.734a.08.08 0 000 .113l.736.735 1.414 1.414c.031.03.082.03.113 0l.735-.736a.08.08 0 000-.113l-.613-.613h2.349L6.785 8l-2.028 2.028H2.408l.614-.613a.08.08 0 000-.113l-.735-.738a.082.082 0 00-.113 0L.759 9.979l-.736.734a.08.08 0 000 .113l.736.735 1.414 1.414a.08.08 0 00.113 0l.735-.735a.08.08 0 000-.113l-.615-.614h2.97v-.003L8 8.888l2.623 2.623v.003h2.97l-.614.614a.08.08 0 000 .113l.735.735a.08.08 0 00.113 0l1.414-1.414.735-.735a.08.08 0 000-.113l-.735-.734-1.414-1.415a.082.082 0 00-.113 0l-.735.736a.08.08 0 000 .113l.614.613h-2.35L9.215 8l2.028-2.028h2.35l-.614.614a.079.079 0 000 .113z"/></svg>