<svg width="16" height="16" viewBox="0 0 16 16"><path d="M15.857 11.277c-.313.395-1.078.676-1.078.676L9.083 14v-1.51l4.192-1.494c.476-.17.549-.41.162-.537s-1.086-.092-1.562.08l-2.793.982V9.957l.161-.055s.807-.285 1.941-.412c1.135-.125 2.524.018 3.615.432 1.232.389 1.371.961 1.058 1.355zM9.625 8.709v-3.86c0-.452-.083-.87-.509-.989-.326-.104-.528.198-.528.651v9.665l-2.605-.828V1.825c1.108.207 2.722.692 3.59.984 2.207.758 2.955 1.701 2.955 3.826-.001 2.072-1.278 2.857-2.903 2.074zm-8.423 3.623c-1.262-.355-1.473-1.096-.897-1.521.532-.395 1.436-.691 1.436-.691l3.737-1.328v1.514l-2.689.963c-.475.17-.548.412-.162.539.386.125 1.085.09 1.562-.08l1.29-.469v1.354c-.082.016-.173.029-.257.043a8.474 8.474 0 01-4.02-.324z"/></svg>