<svg width="16" height="16.008" viewBox="0 0 16 16.008"><path d="M7.203 15.972a8 8 0 01-3.553-1.26c-.898-.588-1.1-.828-1.1-1.309 0-.965 1.061-2.656 2.877-4.583 1.031-1.095 2.47-2.377 2.625-2.342.302.068 2.717 2.421 3.621 3.531 1.431 1.754 2.088 3.189 1.754 3.828-.254.486-1.829 1.438-2.986 1.804-.954.301-2.207.429-3.238.331zM1.336 12.4C.59 11.255.213 10.128.03 8.501c-.06-.539-.039-.847.138-1.951C.385 5.174 1.17 3.58 2.112 2.6c.401-.417.438-.427.927-.263.594.2 1.23.641 2.213 1.528l.574.52-.314.383c-1.454 1.789-2.991 4.319-3.569 5.888-.315.853-.442 1.707-.308 2.063.092.24.008.151-.299-.319zm13.102.196c.072-.36-.02-1.02-.238-1.688-.474-1.441-2.056-4.127-3.509-5.953l-.457-.574.495-.455c.646-.594 1.095-.949 1.578-1.25.382-.238.928-.449 1.162-.449.146 0 .654.527 1.064 1.104a8.387 8.387 0 011.344 3.104c.152.727.166 2.284.023 3.01a9.498 9.498 0 01-.6 1.896c-.18.393-.625 1.155-.82 1.402-.099.129-.099.129-.042-.147zM7.334 1.956c-.67-.34-1.705-.706-2.275-.804a4.204 4.204 0 00-.76-.043c-.469.023-.449 0 .307-.358a7.816 7.816 0 011.865-.62c.801-.168 2.305-.17 3.093-.005.853.181 1.854.553 2.418.9l.168.104-.385-.02c-.767-.039-1.88.271-3.078.854-.361.174-.675.316-.699.312-.22-.101-.438-.208-.654-.32z"/></svg>