<svg width="16" height="16" viewBox="0 0 16 16"><path d="M10.186 2.288l-.19.221c2.329.699 3.414 1.727 3.414 1.727a11.42 11.42 0 00-4.127-1.302 11.563 11.563 0 00-2.769.027c-.084 0-.154.014-.234.027-.479.054-1.647.22-3.113.864-.506.22-.811.384-.811.384s1.125-1.084 3.595-1.784l-.137-.164s-1.864-.04-3.84 1.426c0 0-1.975 3.551-1.975 7.922 0 0 1.151 1.981 4.181 2.075 0 0 .509-.603.921-1.125-1.744-.521-2.4-1.606-2.4-1.606s.138.094.385.234c.014 0 .027.014.054.027.04.026.08.04.124.066.342.194.687.342 1.001.469a10.49 10.49 0 002.015.589 9.54 9.54 0 003.552.014 10.252 10.252 0 001.991-.589 7.835 7.835 0 001.573-.811s-.689 1.111-2.483 1.62c.412.509.91 1.098.91 1.098 3.026-.1 4.178-2.075 4.178-2.062 0-4.371-1.975-7.922-1.975-7.922-1.963-1.465-3.84-1.425-3.84-1.425zm-4.744 8.076c-.767 0-1.398-.669-1.398-1.508 0-.837.619-1.507 1.398-1.507.783 0 1.413.669 1.399 1.507.001.839-.615 1.508-1.399 1.508zm5.005 0c-.767 0-1.399-.669-1.399-1.508 0-.837.619-1.507 1.399-1.507.767 0 1.402.669 1.402 1.507.001.839-.619 1.508-1.402 1.508z"/></svg>