<?xml version="1.0" encoding="utf-8"?>
<!-- Generator: Adobe Illustrator 16.0.0, SVG Export Plug-In . SVG Version: 6.00 Build 0)  -->
<!DOCTYPE svg PUBLIC "-//W3C//DTD SVG 1.1//EN" "http://www.w3.org/Graphics/SVG/1.1/DTD/svg11.dtd">
<svg version="1.1" id="Layer_1" xmlns="http://www.w3.org/2000/svg" xmlns:xlink="http://www.w3.org/1999/xlink" x="0px" y="0px"
	 width="16px" height="16px" viewBox="0 0 16 16" enable-background="new 0 0 16 16" xml:space="preserve">
<g id="circle">
	<g id="Group_3">
		<path id="Path_1" d="M3.326,7.606c0-0.375,0.304-0.678,0.678-0.678c0.001,0,0.002,0,0.003,0l1.129,0.004
			c0.375,0,0.679,0.304,0.679,0.679l0,0v4.27c0.127-0.037,0.29-0.077,0.469-0.12c0.256-0.06,0.437-0.288,0.437-0.55V5.915
			c0-0.375,0.304-0.679,0.679-0.679h1.133c0.375,0,0.679,0.304,0.679,0.679v4.916c0,0,0.283-0.115,0.56-0.231
			c0.21-0.089,0.346-0.294,0.346-0.521v-5.86c0-0.375,0.304-0.679,0.679-0.679h1.132c0.375,0,0.679,0.304,0.679,0.679v4.826
			c0.98-0.711,1.975-1.566,2.764-2.594c0.232-0.303,0.298-0.702,0.174-1.063C14.094,1.216,9.539-0.989,5.37,0.46
			C1.201,1.909-1.004,6.464,0.445,10.633c0.164,0.47,0.371,0.924,0.619,1.356c0.197,0.34,0.573,0.534,0.964,0.499
			c0.214-0.019,0.48-0.045,0.797-0.082c0.285-0.033,0.5-0.274,0.501-0.562V7.606"/>
		<path id="Path_2" d="M3.302,14.455c3.57,2.597,8.57,1.809,11.167-1.762C15.465,11.326,16,9.679,16,7.989
			c0-0.185-0.009-0.366-0.021-0.547C13.058,11.798,7.664,13.834,3.302,14.455"/>
	</g>
</g>
</svg>
