<svg width="16" height="16" viewBox="0 0 16 16"><path d="M8 .197c-4.42 0-8 3.581-8 8a8.005 8.005 0 005.473 7.592c.397.074.547-.172.547-.387 0-.189-.01-.692-.013-1.359-2.225.48-2.692-1.07-2.692-1.07-.364-.926-.893-1.172-.893-1.172-.725-.494.059-.484.059-.484.803.058 1.226.822 1.226.822.713 1.226 1.873.867 2.33.666.071-.52.278-.869.507-1.07-1.775-.197-3.645-.887-3.645-3.952 0-.873.311-1.586.824-2.146-.093-.204-.363-1.019.068-2.12 0 0 .67-.215 2.2.82a7.629 7.629 0 012-.27 7.725 7.725 0 012 .27c1.52-1.035 2.188-.82 2.188-.82.428 1.104.155 1.916.077 2.117.538.584.832 1.352.82 2.146 0 3.072-1.871 3.75-3.647 3.945.276.239.536.729.536 1.479 0 1.069-.01 1.93-.01 2.19 0 .209.144.459.551.379a7.97 7.97 0 005.492-7.579 8 8 0 00-7.997-8L8 .197"/></svg>