<svg width="16" height="16" viewBox="0 0 16 16"><path d="M2.761.419a3.973 3.973 0 00-1.418.923c-.407.4-.723.883-.924 1.417-.198.508-.331 1.09-.371 1.942C.009 5.554 0 5.827 0 7.999c0 2.173.009 2.446.048 3.298.04.854.175 1.436.371 1.943.206.525.478.973.924 1.417.445.444.891.719 1.417.925.508.197 1.089.331 1.942.369C5.555 15.992 5.829 16 8 16s2.447-.008 3.296-.049c.854-.038 1.435-.176 1.943-.369a3.914 3.914 0 001.415-.925 3.93 3.93 0 00.925-1.417c.196-.51.332-1.092.369-1.943.042-.852.052-1.125.052-3.298 0-2.172-.01-2.446-.051-3.299-.037-.853-.174-1.435-.369-1.943a3.967 3.967 0 00-.92-1.415 3.938 3.938 0 00-1.418-.923c-.506-.199-1.09-.332-1.941-.37C10.449.009 10.176 0 8.003 0 5.832 0 5.557.009 4.706.049c-.856.035-1.437.172-1.945.37zm8.471 1.068c.781.036 1.203.166 1.488.277.346.128.659.333.92.598.278.28.452.547.598.92.111.283.24.706.277 1.486.036.842.045 1.097.045 3.233 0 2.14-.011 2.394-.045 3.233-.037.781-.166 1.205-.277 1.488-.129.346-.334.66-.598.92a2.477 2.477 0 01-.92.599c-.283.11-.707.239-1.488.276-.842.039-1.097.045-3.232.045-2.137 0-2.39-.011-3.232-.045-.78-.037-1.203-.166-1.486-.276a2.486 2.486 0 01-.919-.599 2.498 2.498 0 01-.599-.92c-.11-.283-.241-.707-.277-1.488-.04-.842-.046-1.096-.046-3.233s.01-2.391.046-3.233c.035-.781.166-1.203.277-1.486.146-.373.317-.642.598-.92.28-.28.546-.452.919-.598.283-.111.706-.241 1.486-.277C5.61 1.447 5.863 1.44 8 1.44s2.391.007 3.232.047z"/><path d="M3.893 8.002a4.108 4.108 0 108.216.001v-.001a4.11 4.11 0 00-8.216 0zm6.773 0a2.665 2.665 0 01-2.667 2.666A2.666 2.666 0 118 5.335a2.666 2.666 0 012.666 2.667z"/><circle cx="12.273" cy="3.731" r=".96"/></svg>