<svg width="16" height="16" viewBox="0 0 16 16"><path opacity=".8" d="M5.368 3.785v5.933l5.306 2.662-5.306-8.595z"/><path opacity=".6" d="M10.672 12.38l5.314-8.563s.041-.059-.084-.145c-.123-.086-5.028-2.521-5.028-2.521s-.123-.088-.198 0c-.074.092-3.477 5.596-3.477 5.596l3.473 5.633z"/><path opacity=".4" d="M16 3.79v10.868s-.078.301-.398.141l-4.92-2.418L16 3.79z"/><path d="M5.375 3.752L.296 1.209s-.294-.067-.294.241v10.577s-.067.367.535.646l4.438 2.209s.397.078.399-.342c.003-.416.001-10.788.001-10.788z"/></svg>