<?xml version="1.0" encoding="utf-8"?>
<!-- Generator: Adobe Illustrator 16.0.0, SVG Export Plug-In . SVG Version: 6.00 Build 0)  -->
<!DOCTYPE svg PUBLIC "-//W3C//DTD SVG 1.1//EN" "http://www.w3.org/Graphics/SVG/1.1/DTD/svg11.dtd">
<svg version="1.1" id="Layer_1" xmlns="http://www.w3.org/2000/svg" xmlns:xlink="http://www.w3.org/1999/xlink" x="0px" y="0px"
	 width="16px" height="16px" viewBox="0 0 16 16" enable-background="new 0 0 16 16" xml:space="preserve">
<path d="M11.627,9.035c-0.027-0.028-0.068-0.028-0.109-0.015l-0.097,0.042c-0.47,0.234-0.993,0.344-1.518,0.344
	c-0.027,0-0.041,0.015-0.041,0.028C9.807,9.683,9.6,9.862,9.338,9.862H8.262V8.965h0.014C8.345,8.979,8.4,8.979,8.469,8.993
	C8.924,9.063,9.145,9.27,9.241,9.365l0,0l0.015,0.014c0.014,0.014,0.041,0.014,0.055,0s0.027-0.027,0.055-0.041
	c0.166-0.11,0.552-0.345,0.552-1.586c0-1.269-0.966-2.125-1.075-2.18l0,0l0,0l0,0l0,0L8.276,5.531H8.262V5.172
	c0.11-0.069,0.193-0.193,0.193-0.345c0-0.221-0.166-0.4-0.386-0.4s-0.386,0.179-0.386,0.4c0,0.138,0.069,0.262,0.193,0.331v0.303
	L7.062,5.379c-0.042,0-0.069,0.042-0.042,0.069c0.138,0.221,0.511,0.91,0.538,1.945c0.028,0.965-0.124,1.421-0.193,1.586
	c-0.014,0.014-0.014,0.027,0,0.041l0,0c0.014,0.015,0.027,0.015,0.041,0.015c0.097-0.015,0.262-0.042,0.469-0.056v0.896H6.979
	c-0.29,0-0.538-0.249-0.538-0.538V9.117c0-0.027-0.014-0.041-0.042-0.041H4.731c-0.014,0-0.042,0.014-0.042,0.041
	c0,0.041,0,0.083,0,0.124c0,0.621,0.18,1.187,0.483,1.683c0.055,0.083,0.152,0.125,0.234,0.083l0.18-0.083
	c0.138-0.068,0.303-0.068,0.455,0l0.193,0.083c0.138,0.069,0.304,0.069,0.455,0l0.193-0.083c0.152-0.068,0.303-0.068,0.455,0
	l0.193,0.083c0.151,0.069,0.303,0.069,0.455,0l0.193-0.083c0.152-0.068,0.304-0.068,0.456,0l0.193,0.083
	c0.151,0.069,0.303,0.069,0.455,0l0.193-0.083c0.15-0.068,0.303-0.068,0.455,0l0.192,0.083c0.124,0.056,0.263-0.014,0.331-0.138
	c0.11-0.18,0.207-0.387,0.275-0.58c0.152-0.455,0.428-0.883,0.855-1.089c0.041-0.015,0.056-0.056,0.056-0.097
	C11.669,9.09,11.655,9.049,11.627,9.035z M5.476,8.73h1.572c0.027,0,0.042-0.014,0.042-0.041v-1.71c0-0.014-0.014-0.028-0.028-0.042
	L6.29,6.579c-0.014-0.014-0.042,0-0.055,0.028l-0.8,2.055C5.421,8.703,5.448,8.73,5.476,8.73z M8,0C3.586,0,0,3.586,0,8
	c0,4.414,3.586,8,8,8c4.414,0,8-3.586,8-8C16,3.586,12.414,0,8,0z M7.973,13.82c-3.187,0-5.766-2.579-5.766-5.779
	c0-3.187,2.579-5.779,5.766-5.779c3.186,0,5.766,2.593,5.766,5.779C13.725,11.241,11.145,13.82,7.973,13.82z M11.518,9.021
	l-0.097,0.042c-0.47,0.234-0.993,0.344-1.518,0.344c-0.027,0-0.041,0.015-0.041,0.028C9.807,9.683,9.6,9.862,9.338,9.862H8.262
	V8.965h0.014C8.345,8.979,8.4,8.979,8.469,8.993C8.924,9.063,9.145,9.27,9.241,9.365l0,0l0.015,0.014
	c0.014,0.014,0.041,0.014,0.055,0s0.027-0.027,0.055-0.041c0.166-0.11,0.552-0.345,0.552-1.586c0-1.269-0.966-2.125-1.075-2.18l0,0
	l0,0l0,0l0,0L8.276,5.531H8.262V5.172c0.11-0.069,0.193-0.193,0.193-0.345c0-0.221-0.166-0.4-0.386-0.4s-0.386,0.179-0.386,0.4
	c0,0.138,0.069,0.262,0.193,0.331v0.303L7.062,5.379c-0.042,0-0.069,0.042-0.042,0.069c0.138,0.221,0.511,0.91,0.538,1.945
	c0.028,0.965-0.124,1.421-0.193,1.586c-0.014,0.014-0.014,0.027,0,0.041l0,0c0.014,0.015,0.027,0.015,0.041,0.015
	c0.097-0.015,0.262-0.042,0.469-0.056v0.896H6.979c-0.29,0-0.538-0.249-0.538-0.538V9.117c0-0.027-0.014-0.041-0.042-0.041H4.731
	c-0.014,0-0.042,0.014-0.042,0.041c0,0.041,0,0.083,0,0.124c0,0.621,0.18,1.187,0.483,1.683c0.055,0.083,0.152,0.125,0.234,0.083
	l0.18-0.083c0.138-0.068,0.303-0.068,0.455,0l0.193,0.083c0.138,0.069,0.304,0.069,0.455,0l0.193-0.083
	c0.152-0.068,0.303-0.068,0.455,0l0.193,0.083c0.151,0.069,0.303,0.069,0.455,0l0.193-0.083c0.152-0.068,0.304-0.068,0.456,0
	l0.193,0.083c0.151,0.069,0.303,0.069,0.455,0l0.193-0.083c0.15-0.068,0.303-0.068,0.455,0l0.192,0.083
	c0.124,0.056,0.263-0.014,0.331-0.138c0.11-0.18,0.207-0.387,0.275-0.58c0.152-0.455,0.428-0.883,0.855-1.089
	c0.041-0.015,0.056-0.056,0.056-0.097c0-0.027-0.015-0.068-0.042-0.083C11.6,9.021,11.559,9.007,11.518,9.021z M5.476,8.73h1.572
	c0.027,0,0.042-0.014,0.042-0.041v-1.71c0-0.014-0.014-0.028-0.028-0.042L6.29,6.579c-0.014-0.014-0.042,0-0.055,0.028l-0.8,2.055
	C5.421,8.703,5.448,8.73,5.476,8.73z"/>
<path d="M7.062,6.952L6.29,6.593c-0.014-0.014-0.042,0-0.055,0.027l-0.8,2.055C5.421,8.703,5.448,8.73,5.476,8.73h1.572
	c0.027,0,0.042-0.014,0.042-0.041v-1.71C7.09,6.965,7.076,6.952,7.062,6.952z M11.627,9.035c-0.027-0.028-0.068-0.028-0.109-0.015
	l-0.097,0.042c-0.47,0.234-0.993,0.344-1.518,0.344c-0.027,0-0.041,0.015-0.041,0.028C9.807,9.683,9.6,9.862,9.338,9.862H8.262
	V8.965h0.014C8.345,8.979,8.4,8.979,8.469,8.993C8.924,9.063,9.145,9.27,9.241,9.365l0,0l0.015,0.014
	c0.014,0.014,0.041,0.014,0.055,0s0.027-0.027,0.055-0.041c0.166-0.11,0.552-0.345,0.552-1.586c0-1.269-0.966-2.125-1.075-2.18l0,0
	l0,0l0,0l0,0L8.276,5.531H8.262V5.172c0.11-0.069,0.193-0.193,0.193-0.345c0-0.221-0.166-0.4-0.386-0.4s-0.386,0.179-0.386,0.4
	c0,0.138,0.069,0.262,0.193,0.331v0.303L7.062,5.379c-0.042,0-0.069,0.042-0.042,0.069c0.138,0.221,0.511,0.91,0.538,1.945
	c0.028,0.965-0.124,1.421-0.193,1.586c-0.014,0.014-0.014,0.027,0,0.041l0,0c0.014,0.015,0.027,0.015,0.041,0.015
	c0.097-0.015,0.262-0.042,0.469-0.056v0.896H6.979c-0.29,0-0.538-0.249-0.538-0.538V9.117c0-0.027-0.014-0.041-0.042-0.041H4.731
	c-0.014,0-0.042,0.014-0.042,0.041c0,0.041,0,0.083,0,0.124c0,0.621,0.18,1.187,0.483,1.683c0.055,0.083,0.152,0.125,0.234,0.083
	l0.18-0.083c0.138-0.068,0.303-0.068,0.455,0l0.193,0.083c0.138,0.069,0.304,0.069,0.455,0l0.193-0.083
	c0.152-0.068,0.303-0.068,0.455,0l0.193,0.083c0.151,0.069,0.303,0.069,0.455,0l0.193-0.083c0.152-0.068,0.304-0.068,0.456,0
	l0.193,0.083c0.151,0.069,0.303,0.069,0.455,0l0.193-0.083c0.15-0.068,0.303-0.068,0.455,0l0.192,0.083
	c0.124,0.056,0.263-0.014,0.331-0.138c0.11-0.18,0.207-0.387,0.275-0.58c0.152-0.455,0.428-0.883,0.855-1.089
	c0.041-0.015,0.056-0.056,0.056-0.097C11.669,9.09,11.655,9.049,11.627,9.035z"/>
</svg>
