<?xml version="1.0" encoding="utf-8"?>
<!-- Generator: Adobe Illustrator 16.0.0, SVG Export Plug-In . SVG Version: 6.00 Build 0)  -->
<!DOCTYPE svg PUBLIC "-//W3C//DTD SVG 1.1//EN" "http://www.w3.org/Graphics/SVG/1.1/DTD/svg11.dtd">
<svg version="1.1" id="Layer_1" xmlns="http://www.w3.org/2000/svg" xmlns:xlink="http://www.w3.org/1999/xlink" x="0px" y="0px"
	 width="40px" height="40px" viewBox="0 0 40 40" enable-background="new 0 0 40 40" xml:space="preserve">
<g>
	<path d="M22.879,16.967h-6.925v1.389h6.925c0.754,0,1.21-0.099,1.21-0.694S23.633,16.967,22.879,16.967z"/>
	<path d="M34,0H6C2.687,0,0,2.687,0,6v28c0,3.313,2.687,6,6,6h28c3.313,0,6-2.687,6-6V6C40,2.687,37.313,0,34,0z M30.2,27.006
		h-5.755v-3.373c0-1.031-0.614-1.447-1.666-1.447h-6.825v4.82H10.2V12.8h13.671c3.432,0,6.11,0.734,6.11,3.889
		c0,1.895-1.12,2.837-2.381,3.165c1.509,0.446,2.6,1.666,2.6,3.602V27.006z"/>
</g>
</svg>
