<svg width="16" height="16" viewBox="0 0 16 16"><path d="M16 7.822c0-.987-.791-1.789-1.764-1.789-.463 0-.881.178-1.197.475-1.156-.813-2.713-1.348-4.451-1.447l.78-2.608 2.392.483c.08.813.762 1.433 1.578 1.438h.016c.877 0 1.586-.721 1.586-1.607a1.599 1.599 0 00-1.59-1.607h-.012a1.58 1.58 0 00-1.406.865l-3.198-.642-1.096 3.67-.09.004c-1.793.077-3.403.619-4.587 1.449a1.733 1.733 0 00-1.197-.473C.791 6.033 0 6.834 0 7.822c0 .696.392 1.3.966 1.595a3.445 3.445 0 00-.043.526C.927 12.645 4.094 14.84 8 14.84c3.907 0 7.073-2.193 7.073-4.9a3.96 3.96 0 00-.039-.522A1.8 1.8 0 0016 7.822zm-14.777.716a.898.898 0 01-.389-.742c0-.489.396-.896.88-.896a.87.87 0 01.534.183c-.48.425-.837.917-1.025 1.455zM12.75 2.766a.596.596 0 01.588-.599c.324 0 .588.267.588.599a.595.595 0 01-.588.6.596.596 0 01-.588-.598v-.002zM4.523 9.152c0-.625.508-1.131 1.133-1.131h.003c.623-.004 1.13.5 1.133 1.124v.01c0 .625-.505 1.135-1.13 1.137H5.66a1.143 1.143 0 01-1.137-1.133v-.007zM8 13.132c-1.695-.009-2.708-1.017-2.751-1.06l.449-.441c.007.01.844.863 2.302.869 1.438-.009 2.288-.859 2.299-.869l.449.441c-.043.042-1.053 1.051-2.748 1.06zm2.363-2.844a1.135 1.135 0 01-1.135-1.131v-.005c0-.625.506-1.131 1.131-1.133h.005c.625 0 1.132.504 1.134 1.129v.004a1.14 1.14 0 01-1.135 1.136zm4.422-1.736c-.193-.545-.557-1.048-1.045-1.475a.863.863 0 01.541-.185.897.897 0 01.895.899v.007a.888.888 0 01-.391.754z"/></svg>