<svg width="16" height="16" viewBox="0 0 16 16"><path fill="#FFF" d="M8.1 15.283c-.039 0-.078-.004-.117-.006-.024.002-.051.006-.078.006-.919 0-1.509-.417-2.077-.821-.395-.276-.768-.541-1.204-.612a3.948 3.948 0 00-.633-.054c-.37 0-.662.058-.875.099-.132.024-.242.049-.327.049-.089 0-.186-.021-.229-.161a3.967 3.967 0 01-.086-.358c-.065-.299-.113-.479-.238-.5-1.457-.226-1.875-.529-1.967-.752a.235.235 0 01-.022-.094.168.168 0 01.138-.174c2.24-.366 3.246-2.657 3.287-2.756l.004-.012c.137-.277.164-.521.08-.719-.156-.362-.656-.522-.988-.628a2.856 2.856 0 01-.221-.073c-.663-.263-.718-.53-.69-.667.043-.235.355-.397.607-.397a.46.46 0 01.183.037c.297.14.565.209.797.209.322 0 .461-.135.479-.151-.01-.151-.023-.313-.03-.476-.068-1.056-.15-2.375.185-3.126C5.083.896 7.213.72 7.842.72l.276-.002h.036c.633 0 2.766.176 3.771 2.43.335.752.255 2.068.188 3.127l-.006.047c-.01.143-.021.285-.023.428.018.016.146.141.438.15.223-.008.478-.078.754-.209a.576.576 0 01.231-.045c.093 0 .185.018.271.051l.001.003c.229.079.373.237.378.401.005.155-.113.391-.696.617a2.45 2.45 0 01-.219.074c-.335.104-.836.266-.989.627-.084.199-.058.438.08.72l.004.01c.042.098 1.047 2.388 3.288 2.759a.164.164 0 01.136.172.345.345 0 01-.021.094c-.094.22-.51.522-1.969.749-.119.02-.164.176-.236.499-.025.12-.055.239-.088.356-.032.104-.098.156-.209.156h-.018c-.076 0-.188-.016-.324-.043a3.897 3.897 0 00-1.514-.039c-.438.07-.81.336-1.197.61-.578.404-1.165.821-2.085.821z"/><path d="M8.1 15.523c-.043 0-.086-.002-.131-.004-.021.004-.044.006-.064.004-.997 0-1.646-.459-2.218-.862-.373-.263-.722-.511-1.105-.572-.555-.094-1.104-.021-1.422.044-.137.026-.264.053-.373.053a.44.44 0 01-.46-.336c-.038-.132-.064-.258-.094-.377-.021-.093-.055-.252-.086-.32-1.264-.197-1.935-.479-2.104-.889A.583.583 0 010 12.089a.41.41 0 01.341-.425c2.108-.348 3.063-2.521 3.104-2.614.113-.23.138-.404.082-.53-.11-.262-.565-.403-.836-.491-.087-.029-.17-.053-.236-.083-.782-.311-.891-.682-.84-.938.09-.479.77-.707 1.132-.533.405.188.78.205.922.148l-.019-.304c-.07-1.112-.156-2.465.204-3.27C4.917.663 7.174.477 7.839.477l.272-.002c.709 0 2.97.187 4.034 2.573.356.807.271 2.156.207 3.241l-.022.332a.64.64 0 00.193.037 1.82 1.82 0 00.642-.188c.299-.14.513-.076.696 0 .313.111.522.357.533.625.008.336-.28.623-.854.848a1.727 1.727 0 01-.229.08c-.289.094-.729.231-.84.491-.058.131-.029.303.071.516.049.113 1.004 2.285 3.112 2.637a.408.408 0 01.343.425.603.603 0 01-.043.177c-.173.402-.843.688-2.104.887a2.48 2.48 0 00-.084.318c-.025.127-.06.25-.096.373a.431.431 0 01-.439.328 2.096 2.096 0 01-.394-.045 3.76 3.76 0 00-1.422-.037c-.383.063-.729.313-1.103.571-.566.399-1.214.859-2.212.859zm-.138-.485l.138.003c.841 0 1.375-.377 1.939-.775.396-.283.811-.574 1.302-.656a4.332 4.332 0 011.597.041c.119.022.217.037.28.037.028-.101.054-.211.077-.32.073-.329.141-.643.438-.688 1.279-.197 1.646-.445 1.744-.554-2.295-.44-3.322-2.778-3.36-2.882-.173-.344-.198-.65-.089-.916.199-.466.767-.646 1.141-.765.075-.021.146-.045.202-.066.433-.171.546-.329.544-.389 0-.043-.068-.127-.214-.179a.446.446 0 00-.323-.017 2.272 2.272 0 01-.85.232c-.381-.017-.563-.176-.612-.224l-.076-.076.031-.536c.065-1.078.146-2.363-.161-3.063C10.767 1.124 8.754.959 8.16.959l-.317.002c-.592 0-2.598.165-3.542 2.284-.313.697-.231 1.983-.166 3.014l.034.582-.071.076c-.053.055-.25.227-.65.227-.271 0-.572-.078-.902-.232a.168.168 0 00-.08-.015c-.168 0-.354.114-.37.199-.01.044.071.212.541.397.054.022.129.044.203.069.374.119.939.297 1.139.764.111.264.082.57-.086.917-.043.096-1.069 2.433-3.36 2.878.11.113.483.357 1.741.555.295.047.365.357.438.688.023.11.051.225.084.344.066-.015.163-.032.271-.058.225-.043.529-.104.925-.104.22 0 .446.021.672.058.491.082.885.358 1.302.653.564.401 1.1.778 1.938.778l.058.003z"/></svg>