<svg width="16" height="16" viewBox="0 0 16 16"><path d="M.773 8.13c-.035 0-.063.028-.066.065L.549 9.633l.158 1.406c.004.035.031.064.066.064.033 0 .061-.027.064-.064l.18-1.406L.84 8.195C.834 8.159.807 8.13.773 8.13zm-.592.552c-.033 0-.06.025-.064.064L0 9.633l.117.873c.005.037.031.063.064.063s.059-.021.064-.063l.137-.873-.137-.887C.24 8.707.214 8.682.181 8.682zm1.219-.83c-.041 0-.075.031-.08.078l-.149 1.703.149 1.643c.004.052.037.078.08.078s.076-.028.082-.078l.168-1.643-.168-1.703c-.005-.048-.039-.078-.082-.078zm.635-.061c-.049 0-.09.04-.094.092L1.8 9.633l.142 1.695c.004.053.043.092.094.092.05 0 .09-.039.094-.092l.16-1.695-.162-1.751a.095.095 0 00-.093-.091zm.746.217a.11.11 0 00-.107-.106.11.11 0 00-.108.106l-.132 1.625.133 1.708a.11.11 0 00.107.107.111.111 0 00.107-.107l.152-1.708-.152-1.625zm.537-1.136a.123.123 0 00-.121.12l-.125 2.643.125 1.707c.001.066.055.12.121.121.063 0 .117-.055.121-.121l.141-1.707-.141-2.644a.122.122 0 00-.121-.119zm.64-.61a.14.14 0 00-.136.134l-.115 3.25.115 1.693a.141.141 0 00.136.137.137.137 0 00.134-.138v-.001.002l.133-1.695-.133-3.248a.14.14 0 00-.134-.134zm.664-.293a.151.151 0 00-.149.147l-.109 3.519.108 1.68c0 .082.066.148.148.148s.148-.064.148-.146v-.002.002l.123-1.682-.121-3.519a.15.15 0 00-.148-.147zm.821.03a.166.166 0 00-.162-.163.16.16 0 00-.162.158v.004l-.101 3.636.103 1.671c0 .09.071.159.159.159h.002a.164.164 0 00.162-.159l.113-1.671-.114-3.635zm.502-.082a.175.175 0 00-.176.174v.001l-.093 3.543.094 1.656c.002.094.08.174.176.174a.18.18 0 00.178-.176v.002l.104-1.656-.106-3.543a.177.177 0 00-.177-.175zm.67.115a.19.19 0 00-.189.189l-.084 3.414.085 1.643a.192.192 0 00.161.217.191.191 0 00.218-.187v-.029.002L6.9 9.638l-.095-3.415a.19.19 0 00-.19-.191c.001 0 0 0 0 0zm.787-.63a.202.202 0 00-.28.057.208.208 0 00-.035.111l-.001.039-.076 4.026.077 1.635v.006a.202.202 0 00.047.121.197.197 0 00.277.035l.001-.002.004-.004.018-.014a.219.219 0 00.061-.141l.009-.162.076-1.473-.088-4.063a.21.21 0 00-.09-.171zm.091 5.868v-.002.002zm.58-6.249a.21.21 0 00-.248.018.217.217 0 00-.079.167v.021l-.089 4.41.045.814.044.795a.22.22 0 00.216.215.225.225 0 00.22-.217v.002l.094-1.609-.096-4.433a.222.222 0 00-.107-.183zm5.958 2.518c-.271 0-.527.054-.76.152a3.476 3.476 0 00-4.72-2.931c-.149.058-.188.118-.19.232v6.244a.235.235 0 00.215.227h5.455A1.959 1.959 0 0016 9.514v-.008a1.97 1.97 0 00-1.969-1.967z"/></svg>