<svg width="16" height="16" viewBox="0 0 16 16"><path d="M8.001 0a8 8 0 10-.002 16h.004a8 8 0 00-.002-16zm3.669 11.537a.501.501 0 01-.686.166h-.004c-1.875-1.146-4.24-1.408-7.023-.771a.498.498 0 01-.223-.971c3.048-.697 5.663-.396 7.77.893a.497.497 0 01.166.683zm.976-2.18a.622.622 0 01-.853.207h-.003v-.001C9.645 8.242 6.363 7.857 3.82 8.63a.62.62 0 01-.775-.409l-.002-.005v-.002a.626.626 0 01.416-.778c2.904-.881 6.518-.455 8.984 1.063a.624.624 0 01.203.858zm.084-2.267c-2.576-1.531-6.83-1.672-9.291-.925a.75.75 0 01-.481-1.421l.047-.014c2.826-.855 7.521-.689 10.491 1.072a.75.75 0 01-.766 1.288z"/></svg>