<svg width="16" height="16" viewBox="0 0 16 16"><path d="M15.559 1.743a6.767 6.767 0 01-2.084.796 3.285 3.285 0 00-5.597 2.992 9.303 9.303 0 01-6.767-3.43A3.28 3.28 0 00.667 3.75a3.276 3.276 0 001.46 2.732 3.217 3.217 0 01-1.486-.41v.043a3.286 3.286 0 002.632 3.219c-.483.133-.989.15-1.482.057a3.29 3.29 0 003.065 2.279A6.583 6.583 0 010 13.029a9.24 9.24 0 005.032 1.474c6.036 0 9.341-5.001 9.341-9.339 0-.143-.005-.284-.012-.426A6.765 6.765 0 0016 3.04a6.725 6.725 0 01-1.889.518 3.314 3.314 0 001.448-1.815z"/></svg>