<svg width="16" height="16" viewBox="0 0 16 16"><path d="M15.84 4.8s-.156-1.104-.635-1.589c-.609-.638-1.291-.643-1.604-.679C11.361 2.371 8 2.371 8 2.371h-.005s-3.359 0-5.601.161c-.31.036-.994.041-1.601.679C.314 3.695.158 4.8.158 4.8S0 6.096 0 7.391v1.212c0 1.297.16 2.592.16 2.592s.156 1.104.635 1.591c.607.637 1.409.614 1.766.685 1.278.119 5.439.158 5.439.158s3.361-.006 5.602-.168c.313-.037.994-.041 1.604-.678.479-.486.635-1.588.635-1.588S16 9.898 16 8.604V7.391c0-1.298-.16-2.591-.16-2.591zm-9.492 5.274V5.578l4.322 2.255-4.322 2.241z"/></svg>